<svg id="visual" viewBox="0 0 450 900" width="450" height="900" xmlns="http://www.w3.org/2000/svg" xmlns:xlink="http://www.w3.org/1999/xlink" version="1.1"><path d="M0 118L10.7 116.5C21.3 115 42.7 112 64.2 104.5C85.7 97 107.3 85 128.8 77.5C150.3 70 171.7 67 193 71.5C214.3 76 235.7 88 257 97C278.3 106 299.7 112 321.2 109C342.7 106 364.3 94 385.8 89.5C407.3 85 428.7 88 439.3 89.5L450 91L450 0L439.3 0C428.7 0 407.3 0 385.8 0C364.3 0 342.7 0 321.2 0C299.7 0 278.3 0 257 0C235.7 0 214.3 0 193 0C171.7 0 150.3 0 128.8 0C107.3 0 85.7 0 64.2 0C42.7 0 21.3 0 10.7 0L0 0Z" fill="#53d2db"></path><path d="M0 253L10.7 253C21.3 253 42.7 253 64.2 233.5C85.7 214 107.3 175 128.8 154C150.3 133 171.7 130 193 142C214.3 154 235.7 181 257 208C278.3 235 299.7 262 321.2 263.5C342.7 265 364.3 241 385.8 239.5C407.3 238 428.7 259 439.3 269.5L450 280L450 89L439.3 87.5C428.7 86 407.3 83 385.8 87.5C364.3 92 342.7 104 321.2 107C299.7 110 278.3 104 257 95C235.7 86 214.3 74 193 69.5C171.7 65 150.3 68 128.8 75.5C107.3 83 85.7 95 64.2 102.5C42.7 110 21.3 113 10.7 114.5L0 116Z" fill="#7edbc3"></path><path d="M0 577L10.7 569.5C21.3 562 42.7 547 64.2 529C85.7 511 107.3 490 128.8 475C150.3 460 171.7 451 193 431.5C214.3 412 235.7 382 257 380.5C278.3 379 299.7 406 321.2 400C342.7 394 364.3 355 385.8 388C407.3 421 428.7 526 439.3 578.5L450 631L450 278L439.3 267.5C428.7 257 407.3 236 385.8 237.5C364.3 239 342.7 263 321.2 261.5C299.7 260 278.3 233 257 206C235.7 179 214.3 152 193 140C171.7 128 150.3 131 128.8 152C107.3 173 85.7 212 64.2 231.5C42.7 251 21.3 251 10.7 251L0 251Z" fill="#ade0b0"></path><path d="M0 757L10.7 752.5C21.3 748 42.7 739 64.2 728.5C85.7 718 107.3 706 128.8 704.5C150.3 703 171.7 712 193 728.5C214.3 745 235.7 769 257 766C278.3 763 299.7 733 321.2 712C342.7 691 364.3 679 385.8 697C407.3 715 428.7 763 439.3 787L450 811L450 629L439.3 576.5C428.7 524 407.3 419 385.8 386C364.3 353 342.7 392 321.2 398C299.7 404 278.3 377 257 378.5C235.7 380 214.3 410 193 429.5C171.7 449 150.3 458 128.8 473C107.3 488 85.7 509 64.2 527C42.7 545 21.3 560 10.7 567.5L0 575Z" fill="#d9e2aa"></path><path d="M0 901L10.7 901C21.3 901 42.7 901 64.2 901C85.7 901 107.3 901 128.8 901C150.3 901 171.7 901 193 901C214.3 901 235.7 901 257 901C278.3 901 299.7 901 321.2 901C342.7 901 364.3 901 385.8 901C407.3 901 428.7 901 439.3 901L450 901L450 809L439.3 785C428.7 761 407.3 713 385.8 695C364.3 677 342.7 689 321.2 710C299.7 731 278.3 761 257 764C235.7 767 214.3 743 193 726.5C171.7 710 150.3 701 128.8 702.5C107.3 704 85.7 716 64.2 726.5C42.7 737 21.3 746 10.7 750.5L0 755Z" fill="#ffe3b3"></path></svg>